<svg width="100" height="101" viewBox="0 0 100 101" fill="none" xmlns="http://www.w3.org/2000/svg">
<g id="Frame">
<path id="Vector" d="M64.7059 0.5H35.2941C15.8017 0.5 0 16.3017 0 35.7941V65.2059C0 84.6983 15.8017 100.5 35.2941 100.5H64.7059C84.1983 100.5 100 84.6983 100 65.2059V35.7941C100 16.3017 84.1983 0.5 64.7059 0.5Z" fill="#EF884D"/>
<path id="Vector_2" d="M52.1448 74.9294C52.1448 76.4717 53.4112 77.7367 54.961 77.5794C68.6968 76.1841 79.4118 64.695 79.4118 50.7279C79.4118 36.7606 68.6968 25.2715 54.961 23.8762C53.4112 23.7179 52.1448 24.9838 52.1448 26.5263V33.9729C52.1448 35.5153 53.4198 36.7365 54.9477 37.0409C61.3939 38.3282 66.2486 43.9662 66.2486 50.7279C66.2486 57.4894 61.3939 63.1273 54.9477 64.4147C53.4198 64.7191 52.1448 65.9415 52.1448 67.4829V74.9294Z" fill="white"/>
<path id="Vector_3" d="M44.9933 23.4076H26.1532C25.0569 23.4076 24.2788 24.4605 24.6154 25.4885L29.6144 40.7521C29.88 41.563 29.4506 42.4362 28.64 42.733L21.6419 45.2971C20.698 45.643 20.3017 46.7459 20.8143 47.6L38.3477 76.8003C39.2441 78.2936 41.5744 77.4971 41.3397 75.7777L38.543 55.283C38.4127 54.328 39.1665 53.4789 40.1441 53.4789H46.8277C47.763 53.4789 48.5027 52.6992 48.44 51.7797L46.6053 24.8929C46.5483 24.0568 45.8436 23.4076 44.9933 23.4076Z" fill="white"/>
</g>
</svg>
