<svg width="100" height="101" viewBox="0 0 100 101" fill="none" xmlns="http://www.w3.org/2000/svg">
<g id="Frame">
<path id="Vector" d="M70 0.5H30C13.4315 0.5 0 13.9315 0 30.5V70.5C0 87.0685 13.4315 100.5 30 100.5H70C86.5685 100.5 100 87.0685 100 70.5V30.5C100 13.9315 86.5685 0.5 70 0.5Z" fill="white"/>
<path id="Vector_2" d="M49.9996 74.8233C49.9996 76.3735 51.3008 77.6448 52.892 77.4867C66.997 76.0844 78 64.5374 78 50.5001C78 36.4628 66.997 24.9158 52.892 23.5135C51.3008 23.3544 49.9996 24.6267 49.9996 26.1769V33.6609C49.9996 35.2111 51.3096 36.4384 52.8778 36.7444C59.4981 38.0381 64.4829 43.7045 64.4829 50.5001C64.4829 57.2957 59.4981 62.962 52.8778 64.2558C51.3096 64.5617 49.9996 65.79 49.9996 67.3393V74.8233ZM41.3099 28.5699C41.3099 26.6614 39.3819 25.3162 37.6166 26.1609C28.3639 30.5887 22 39.824 22 50.5001C22 61.1761 28.3639 70.4115 37.6166 74.8392C39.3819 75.684 41.3099 74.3388 41.3099 72.4303V28.5699Z" fill="#5BB867"/>
</g>
</svg>
