<svg width="100" height="101" viewBox="0 0 100 101" fill="none" xmlns="http://www.w3.org/2000/svg">
<g id="Frame">
<path id="Vector" d="M64.7059 0.5H35.2941C15.8017 0.5 0 16.3017 0 35.7941V65.2059C0 84.6983 15.8017 100.5 35.2941 100.5H64.7059C84.1983 100.5 100 84.6983 100 65.2059V35.7941C100 16.3017 84.1983 0.5 64.7059 0.5Z" fill="white"/>
<path id="Vector_2" d="M49.9994 76.9959C49.9994 78.6847 51.3665 80.0694 53.0377 79.8974C67.8538 78.3697 79.4118 65.7912 79.4118 50.5C79.4118 35.2089 67.8538 22.6305 53.0377 21.1029C51.3665 20.9297 49.9994 22.3156 49.9994 24.0042V32.1568C49.9994 33.8453 51.3756 35.1824 53.023 35.5156C59.9771 36.925 65.2133 43.0977 65.2133 50.5C65.2133 57.9027 59.9771 64.075 53.023 65.4847C51.3756 65.8177 49.9994 67.1559 49.9994 68.8436V76.9959ZM40.8718 26.611C40.8718 24.5321 38.8465 23.0667 36.9924 23.9869C27.273 28.8102 20.5883 38.8703 20.5883 50.5C20.5883 62.1297 27.273 72.19 36.9924 77.0133C38.8465 77.9336 40.8718 76.4683 40.8718 74.3891V26.611Z" fill="#EF884D"/>
</g>
</svg>
